<svg xmlns="http://www.w3.org/2000/svg" viewBox="0 0 512 512" fill="none">
  <defs>
    <linearGradient id="arcGrad" x1="96" y1="256" x2="416" y2="256" gradientUnits="userSpaceOnUse">
      <stop stop-color="#6CB447" />
      <stop offset="1" stop-color="#2F7E36" />
    </linearGradient>
    <linearGradient id="leafGradA" x1="-88" y1="-42" x2="94" y2="46" gradientUnits="userSpaceOnUse">
      <stop stop-color="#C9E63E" />
      <stop offset="1" stop-color="#86B61B" />
    </linearGradient>
    <linearGradient id="leafGradB" x1="-88" y1="-42" x2="94" y2="46" gradientUnits="userSpaceOnUse">
      <stop stop-color="#C2E339" />
      <stop offset="1" stop-color="#7FAF18" />
    </linearGradient>
    <filter id="blurShadow" x="-20%" y="-20%" width="140%" height="140%">
      <feDropShadow dx="0" dy="2" stdDeviation="2.4" flood-color="#0f3a17" flood-opacity="0.28" />
    </filter>
    <path
      id="leafShape"
      d="M-92 0C-66 -46 -26 -62 0 -62C34 -62 75 -33 92 0C74 36 36 62 0 62C-34 62 -73 38 -92 0Z"
    />
  </defs>

  <!-- Circular strokes behind leaves -->
  <g stroke="url(#arcGrad)" stroke-width="17" stroke-linecap="round">
    <path d="M103 271A133 133 0 0 0 264 406" />
    <path d="M230 140A72 72 0 0 1 334 167" />
    <path d="M334 167A142 142 0 1 1 296 448" />
  </g>

  <!-- Leaves -->
  <g filter="url(#blurShadow)">
    <g transform="translate(189 212) rotate(40)">
      <use href="#leafShape" fill="url(#leafGradA)" />
      <path d="M-62 -2C-19 0 26 0 69 2" stroke="#4F7D2D" stroke-width="11" stroke-linecap="round" />
    </g>
    <g transform="translate(320 313) rotate(-46)">
      <use href="#leafShape" fill="url(#leafGradB)" />
      <path d="M-62 -2C-19 0 26 0 69 2" stroke="#4F7D2D" stroke-width="11" stroke-linecap="round" />
    </g>
  </g>
</svg>
